# xmcd
#
# Track frame offsets: 
#        210
#        8017
#        17697
#        31558
#        42738
#        55652
#        62781
#        71169
#        87445
#        99146
#        114373
#        132388
#        146624
#        159119
#        167398
#        178423
#        185636
#
# Disc length: 2652 seconds
#
# Revision: 0
# Processed by: cddbd v1.5.2PL0 Copyright (c) Steve Scherf et al.
# Submitted via: ExactAudioCopyFreeDBPlugin 1.0
#
DISCID=db0a5a11
DTITLE=MIniMagis - MIniMagis
DYEAR=2019
DGENRE=Gospel
TTITLE0=Somebody's knocking
TTITLE1=Cesta
TTITLE2=Žiť, Žiť
TTITLE3=Jesus christ you are my life
TTITLE4=What a friend
TTITLE5=Hľadáme každý jeho tvár
TTITLE6=Môj Bože
TTITLE7=Zo všetkého čo máme
TTITLE8=Kto je pre mňa ježiš
TTITLE9=Abba otče
TTITLE10=I love you lord
TTITLE11=Môj pán
TTITLE12=He knows my name
TTITLE13=Ty si mi
TTITLE14=Stvoril si ma z lásky
TTITLE15=Mám ťa rád
TTITLE16=Say Yes (bonus)
EXTD=
EXTT0=
EXTT1=
EXTT2=
EXTT3=
EXTT4=
EXTT5=
EXTT6=
EXTT7=
EXTT8=
EXTT9=
EXTT10=
EXTT11=
EXTT12=
EXTT13=
EXTT14=
EXTT15=
EXTT16=
PLAYORDER=
